STARTFONT 2.1
FONT -FontForge-Untitled1-Regular-R-Normal--100-960-75-75-P-725-ISO8859-1
SIZE 96 75 75
FONTBOUNDINGBOX 102 97 4 -24
COMMENT "Generated by fontforge, http://fontforge.sourceforge.net"
COMMENT "Copyright (c) 2020, Chris"
STARTPROPERTIES 29
FOUNDRY "FontForge"
FAMILY_NAME "Untitled1"
WEIGHT_NAME "Regular"
SLANT "R"
SETWIDTH_NAME "Normal"
ADD_STYLE_NAME ""
PIXEL_SIZE 100
POINT_SIZE 960
RESOLUTION_X 75
RESOLUTION_Y 75
SPACING "P"
AVERAGE_WIDTH 725
CHARSET_REGISTRY "ISO8859"
CHARSET_ENCODING "1"
FONTNAME_REGISTRY ""
CHARSET_COLLECTIONS "ISOLatin1Encoding"
FONT_NAME "Untitled1"
FACE_NAME "Untitled1"
COPYRIGHT "Copyright (c) 2020, Chris"
FONT_VERSION "001.000"
FONT_ASCENT 80
FONT_DESCENT 20
UNDERLINE_POSITION -10
UNDERLINE_THICKNESS 5
CAP_HEIGHT 71
RAW_ASCENT 800
RAW_DESCENT 200
FIGURE_WIDTH -1
AVG_UPPERCASE_WIDTH 725
ENDPROPERTIES
CHARS 26
STARTCHAR A
ENCODING 65
SWIDTH 754 0
DWIDTH 75 0
BBX 69 74 4 -1
BITMAP
000000003C00000000
000000007C00000000
000000007E00000000
000000007E00000000
00000000FE00000000
00000000FF00000000
00000001FF00000000
00000001FF00000000
00000001FF80000000
00000003FF80000000
00000003FF80000000
00000003FFC0000000
00000007FFC0000000
00000007FFC0000000
00000007FFE0000000
0000000FFFE0000000
0000000FFFE0000000
0000000FFFF0000000
0000001FFFF0000000
0000001FFFF0000000
0000001FFFF8000000
0000003FFFF8000000
0000003FFFF8000000
0000003FFFFC000000
0000007BFFFC000000
00000079FFFC000000
00000079FFFE000000
000000F1FFFE000000
000000F0FFFE000000
000000F0FFFF000000
000001E0FFFF000000
000001E07FFF000000
000001E07FFF800000
000003C07FFF800000
000003C03FFF800000
000003C03FFF800000
000007803FFFC00000
000007801FFFC00000
000007801FFFC00000
00000F001FFFE00000
00000F000FFFE00000
00000F000FFFE00000
00001E000FFFF00000
00001E0007FFF00000
00001E0007FFF00000
00003C0007FFF80000
00003C0003FFF80000
00003C0003FFF80000
0000780003FFFC0000
0000780003FFFC0000
0000780001FFFC0000
0000FFFFFFFFFE0000
0000FFFFFFFFFE0000
0000FFFFFFFFFE0000
0001FFFFFFFFFF0000
0001E00000FFFF0000
0001E000007FFF0000
0003C000007FFF8000
0003C000007FFF8000
0003C000003FFF8000
00078000003FFFC000
00078000003FFFC000
00078000001FFFC000
000F0000001FFFE000
000F0000001FFFE000
001F0000000FFFE000
001F0000000FFFF000
003F0000000FFFF000
007F8000000FFFF800
00FFC000001FFFFC00
03FFE000003FFFFE00
FFFFFFC03FFFFFFFF8
FFFFFFC03FFFFFFFF8
FFFFFFC03FFFFFFFF8
ENDCHAR
STARTCHAR B
ENCODING 66
SWIDTH 710 0
DWIDTH 71 0
BBX 60 73 6 -1
BITMAP
FFFFFFFFFF800000
FFFFFFFFFFF80000
FFFFFFFFFFFE0000
007FFF800FFF8000
007FFF8003FFE000
003FFF0001FFF000
003FFF0000FFF800
003FFF00007FFC00
003FFF00007FFE00
003FFF00003FFF00
003FFF00003FFF00
003FFF00003FFF80
003FFF00003FFF80
003FFF00001FFF80
003FFF00001FFFC0
003FFF00001FFFC0
003FFF00001FFFC0
003FFF00001FFFC0
003FFF00001FFFC0
003FFF00001FFFC0
003FFF00001FFF80
003FFF00001FFF80
003FFF00001FFF80
003FFF00003FFF80
003FFF00003FFF00
003FFF00003FFE00
003FFF00003FFE00
003FFF00007FFC00
003FFF00007FF800
003FFF00007FE000
003FFF0000FFC000
003FFF0001FF0000
003FFF0007FC0000
003FFFFFFFF00000
003FFFFFFF800000
003FFFFFFFF00000
003FFF000FFE0000
003FFF0001FF8000
003FFF0000FFE000
003FFF00007FF000
003FFF00003FFC00
003FFF00003FFE00
003FFF00001FFF00
003FFF00001FFF80
003FFF00001FFFC0
003FFF00000FFFC0
003FFF00000FFFE0
003FFF00000FFFE0
003FFF00000FFFF0
003FFF00000FFFF0
003FFF00000FFFF0
003FFF00000FFFF0
003FFF00000FFFF0
003FFF00000FFFF0
003FFF00000FFFF0
003FFF00000FFFF0
003FFF00000FFFF0
003FFF00000FFFF0
003FFF00000FFFE0
003FFF00000FFFE0
003FFF00000FFFE0
003FFF00001FFFC0
003FFF00001FFFC0
003FFF00001FFF80
003FFF00003FFF80
003FFF00003FFF00
003FFF00007FFE00
003FFF0000FFFC00
007FFF8001FFF000
007FFF800FFFE000
FFFFFFFFFFFF8000
FFFFFFFFFFFC0000
FFFFFFFFFFC00000
ENDCHAR
STARTCHAR C
ENCODING 67
SWIDTH 660 0
DWIDTH 66 0
BBX 54 75 7 -2
BITMAP
000001FF000000
00001FFFE00070
00007FFFF800F0
0001FFC3FE00F0
0003FE003F81F0
0007FC000FC1F0
000FF80007F7F0
003FF00003FFF0
003FF00001FFF0
007FE00000FFF0
00FFE000007FF0
01FFC000007FF0
01FFC000003FF0
03FFC000001FF0
07FFC000001FF0
07FF8000000FF0
0FFF8000000FF0
0FFF80000007F0
1FFF80000007F0
1FFF80000003F0
1FFF80000003F0
3FFF80000003F0
3FFF80000001F0
3FFF80000001F0
3FFF80000001F0
7FFF80000000F0
7FFF80000000F0
7FFF80000000F0
7FFF80000000F0
7FFF8000000070
FFFF8000000070
FFFF8000000070
FFFF8000000000
FFFF8000000000
FFFF8000000000
FFFF8000000000
FFFF8000000000
FFFF8000000000
FFFF8000000000
FFFF8000000000
FFFF8000000000
FFFF8000000000
FFFF8000000000
FFFF8000000000
FFFF8000000000
7FFF8000000000
7FFF800000003C
7FFF800000003C
7FFF800000003C
7FFF800000003C
3FFF800000003C
3FFF8000000038
3FFF8000000038
3FFF8000000078
1FFF8000000078
1FFF8000000078
0FFF80000000F0
0FFF80000000F0
0FFF80000000F0
07FFC0000001E0
07FFC0000001E0
03FFC0000003C0
01FFC0000003C0
01FFE000000780
00FFE000000F80
007FE000000F00
003FF000001E00
001FF800007E00
000FFC0000FC00
0007FE0001F800
0003FF000FE000
0000FFE07FC000
00007FFFFF0000
00000FFFFC0000
000000FFC00000
ENDCHAR
STARTCHAR D
ENCODING 68
SWIDTH 786 0
DWIDTH 79 0
BBX 68 73 6 -1
BITMAP
FFFFFFFFFFE0000000
FFFFFFFFFFFC000000
FFFFFFFFFFFF800000
007FFF8001FFE00000
007FFF80003FF80000
003FFF00000FFC0000
003FFF000007FE0000
003FFF000003FF0000
003FFF000001FF8000
003FFF000000FFC000
003FFF000000FFE000
003FFF0000007FF000
003FFF0000007FF800
003FFF0000003FF800
003FFF0000003FFC00
003FFF0000003FFE00
003FFF0000003FFE00
003FFF0000003FFF00
003FFF0000003FFF00
003FFF0000001FFF80
003FFF0000001FFF80
003FFF0000001FFF80
003FFF0000001FFFC0
003FFF0000001FFFC0
003FFF0000001FFFC0
003FFF0000001FFFC0
003FFF0000001FFFE0
003FFF0000001FFFE0
003FFF0000001FFFE0
003FFF0000001FFFE0
003FFF0000001FFFE0
003FFF0000001FFFE0
003FFF0000001FFFE0
003FFF0000001FFFF0
003FFF0000001FFFF0
003FFF0000001FFFF0
003FFF0000001FFFF0
003FFF0000001FFFF0
003FFF0000001FFFF0
003FFF0000001FFFE0
003FFF0000001FFFE0
003FFF0000001FFFE0
003FFF0000001FFFE0
003FFF0000001FFFE0
003FFF0000001FFFE0
003FFF0000001FFFE0
003FFF0000001FFFC0
003FFF0000001FFFC0
003FFF0000001FFFC0
003FFF0000001FFFC0
003FFF0000001FFF80
003FFF0000001FFF80
003FFF0000001FFF80
003FFF0000001FFF00
003FFF0000003FFF00
003FFF0000003FFE00
003FFF0000003FFE00
003FFF0000003FFC00
003FFF0000003FFC00
003FFF0000003FF800
003FFF0000007FF000
003FFF0000007FF000
003FFF000000FFE000
003FFF000000FFC000
003FFF000001FF8000
003FFF000003FF0000
003FFF000007FE0000
003FFF00000FFC0000
007FFF80003FF00000
007FFF8001FFE00000
FFFFFFFFFFFF800000
FFFFFFFFFFFC000000
FFFFFFFFFFE0000000
ENDCHAR
STARTCHAR E
ENCODING 69
SWIDTH 690 0
DWIDTH 69 0
BBX 58 73 6 -1
BITMAP
FFFFFFFFFFFFFF00
FFFFFFFFFFFFFF00
FFFFFFFFFFFFFF00
007FFF8000FFFF80
007FFF80001FFF80
003FFF00000FFF80
003FFF000003FF80
003FFF000001FF80
003FFF000001FF80
003FFF000000FF80
003FFF0000007F80
003FFF0000007F80
003FFF0000003F80
003FFF0000001F80
003FFF0000001F80
003FFF0000000F80
003FFF0000000F80
003FFF0000000F80
003FFF0000000780
003FFF0000000780
003FFF0001E00780
003FFF0001E00780
003FFF0001E00380
003FFF0001E00380
003FFF0001E00000
003FFF0003E00000
003FFF0003E00000
003FFF0003E00000
003FFF0007E00000
003FFF000FE00000
003FFF000FE00000
003FFF001FE00000
003FFF003FE00000
003FFF00FFE00000
003FFFFFFFE00000
003FFFFFFFE00000
003FFFFFFFE00000
003FFFFFFFE00000
003FFF007FE00000
003FFF003FE00000
003FFF001FE00000
003FFF000FE00000
003FFF0007E00000
003FFF0007E00000
003FFF0003E00000
003FFF0003E003C0
003FFF0003E003C0
003FFF0001E003C0
003FFF0001E003C0
003FFF0001E003C0
003FFF0001E003C0
003FFF0001E007C0
003FFF00000007C0
003FFF00000007C0
003FFF00000007C0
003FFF0000000FC0
003FFF0000000FC0
003FFF0000000FC0
003FFF0000001FC0
003FFF0000001F80
003FFF0000003F80
003FFF0000003F80
003FFF0000007F80
003FFF000000FF80
003FFF000001FF80
003FFF000001FF80
003FFF000003FF80
003FFF000007FF80
007FFF80001FFF80
007FFF8000FFFF80
FFFFFFFFFFFFFF80
FFFFFFFFFFFFFF80
FFFFFFFFFFFFFF80
ENDCHAR
STARTCHAR F
ENCODING 70
SWIDTH 670 0
DWIDTH 67 0
BBX 57 73 6 -1
BITMAP
FFFFFFFFFFFFFF80
FFFFFFFFFFFFFF80
FFFFFFFFFFFFFF80
007FFF8000FFFF80
007FFF80003FFF80
003FFF00000FFF80
003FFF000007FF80
003FFF000003FF80
003FFF000001FF80
003FFF000000FF80
003FFF000000FF80
003FFF0000007F80
003FFF0000003F80
003FFF0000003F80
003FFF0000001F80
003FFF0000001F80
003FFF0000001F80
003FFF0000000F80
003FFF0000000F80
003FFF0000000F80
003FFF0001E00780
003FFF0001E00780
003FFF0001E00780
003FFF0001E00780
003FFF0001E00380
003FFF0003E00380
003FFF0003E00380
003FFF0003E00380
003FFF0007E00000
003FFF000FE00000
003FFF000FE00000
003FFF001FE00000
003FFF003FE00000
003FFF00FFE00000
003FFFFFFFE00000
003FFFFFFFE00000
003FFFFFFFE00000
003FFFFFFFE00000
003FFF007FE00000
003FFF003FE00000
003FFF001FE00000
003FFF000FE00000
003FFF0007E00000
003FFF0007E00000
003FFF0003E00000
003FFF0003E00000
003FFF0003E00000
003FFF0001E00000
003FFF0001E00000
003FFF0001E00000
003FFF0001E00000
003FFF0001E00000
003FFF0000000000
003FFF0000000000
003FFF0000000000
003FFF0000000000
003FFF0000000000
003FFF0000000000
003FFF0000000000
003FFF0000000000
003FFF0000000000
003FFF0000000000
003FFF0000000000
003FFF0000000000
003FFF0000000000
003FFF0000000000
003FFF0000000000
003FFF0000000000
007FFF8000000000
007FFF8000000000
FFFFFFFFF0000000
FFFFFFFFF0000000
FFFFFFFFF0000000
ENDCHAR
STARTCHAR G
ENCODING 71
SWIDTH 720 0
DWIDTH 72 0
BBX 62 75 7 -2
BITMAP
0000007FC0000000
000007FFF8001E00
00001FFFFF001E00
00007FE0FF803E00
0001FF000FE03E00
0003FC0003F87E00
0007F80001FEFE00
000FF00000FFFE00
001FF000007FFE00
003FE000003FFE00
007FE000001FFE00
00FFC000000FFE00
01FFC000000FFE00
01FFC0000007FE00
03FFC0000007FE00
07FF80000003FE00
07FF80000001FE00
0FFF80000001FE00
0FFF80000000FE00
0FFF80000000FE00
1FFF80000000FE00
1FFF800000007E00
3FFF800000007E00
3FFF800000003E00
3FFF800000003E00
7FFF800000003E00
7FFF800000001E00
7FFF800000001E00
7FFF800000001E00
7FFF800000001E00
FFFF800000000000
FFFF800000000000
FFFF800000000000
FFFF800000000000
FFFF800000000000
FFFF800000000000
FFFF800000000000
FFFF800000000000
FFFF8007FFFFFFFC
FFFF8007FFFFFFFC
FFFF8007FFFFFFFC
FFFF800001FFFE00
FFFF800000FFFE00
FFFF800000FFFE00
FFFF800000FFFE00
7FFF800000FFFE00
7FFF800000FFFE00
7FFF800000FFFE00
7FFF800000FFFE00
7FFF800000FFFE00
7FFF800000FFFE00
3FFF800000FFFE00
3FFF800000FFFE00
3FFF800000FFFE00
1FFF800000FFFE00
1FFF800000FFFE00
1FFF800000FFFE00
0FFF800000FFFE00
0FFF800000FFFE00
07FF800000FFFE00
07FFC00001FFFE00
03FFC00001FFFE00
01FFC00001FFFE00
01FFC00001F8FE00
00FFE00003F07E00
007FE00003E07E00
003FE00007C07E00
003FF0000FC03E00
000FF8000F803E00
0007FC003F003E00
0003FE007E003E00
0001FF81FC001E00
00007FFFF0001E00
00001FFFC0001E00
000001FF00001E00
ENDCHAR
STARTCHAR H
ENCODING 72
SWIDTH 824 0
DWIDTH 82 0
BBX 72 73 6 -1
BITMAP
FFFFFFFFC3FFFFFFFF
FFFFFFFFC3FFFFFFFF
FFFFFFFFC3FFFFFFFF
007FFF800001FFFF00
007FFF800000FFFE00
003FFF000000FFFE00
003FFF000000FFFE00
003FFF000000FFFE00
003FFF000000FFFE00
003FFF000000FFFE00
003FFF000000FFFE00
003FFF000000FFFE00
003FFF000000FFFE00
003FFF000000FFFE00
003FFF000000FFFE00
003FFF000000FFFE00
003FFF000000FFFE00
003FFF000000FFFE00
003FFF000000FFFE00
003FFF000000FFFE00
003FFF000000FFFE00
003FFF000000FFFE00
003FFF000000FFFE00
003FFF000000FFFE00
003FFF000000FFFE00
003FFF000000FFFE00
003FFF000000FFFE00
003FFF000000FFFE00
003FFF000000FFFE00
003FFF000000FFFE00
003FFF000000FFFE00
003FFF000000FFFE00
003FFF000000FFFE00
003FFFFFFFFFFFFE00
003FFFFFFFFFFFFE00
003FFFFFFFFFFFFE00
003FFFFFFFFFFFFE00
003FFF000000FFFE00
003FFF000000FFFE00
003FFF000000FFFE00
003FFF000000FFFE00
003FFF000000FFFE00
003FFF000000FFFE00
003FFF000000FFFE00
003FFF000000FFFE00
003FFF000000FFFE00
003FFF000000FFFE00
003FFF000000FFFE00
003FFF000000FFFE00
003FFF000000FFFE00
003FFF000000FFFE00
003FFF000000FFFE00
003FFF000000FFFE00
003FFF000000FFFE00
003FFF000000FFFE00
003FFF000000FFFE00
003FFF000000FFFE00
003FFF000000FFFE00
003FFF000000FFFE00
003FFF000000FFFE00
003FFF000000FFFE00
003FFF000000FFFE00
003FFF000000FFFE00
003FFF000000FFFE00
003FFF000000FFFE00
003FFF000000FFFE00
003FFF000000FFFE00
003FFF000000FFFE00
007FFF800000FFFE00
007FFF800001FFFF00
FFFFFFFFC1FFFFFFFF
FFFFFFFFC1FFFFFFFF
FFFFFFFFC1FFFFFFFF
ENDCHAR
STARTCHAR I
ENCODING 73
SWIDTH 440 0
DWIDTH 44 0
BBX 34 73 6 -1
BITMAP
FFFFFFFFC0
FFFFFFFFC0
FFFFFFFFC0
007FFF8000
007FFF8000
003FFF0000
003FFF0000
003FFF0000
003FFF0000
003FFF0000
003FFF0000
003FFF0000
003FFF0000
003FFF0000
003FFF0000
003FFF0000
003FFF0000
003FFF0000
003FFF0000
003FFF0000
003FFF0000
003FFF0000
003FFF0000
003FFF0000
003FFF0000
003FFF0000
003FFF0000
003FFF0000
003FFF0000
003FFF0000
003FFF0000
003FFF0000
003FFF0000
003FFF0000
003FFF0000
003FFF0000
003FFF0000
003FFF0000
003FFF0000
003FFF0000
003FFF0000
003FFF0000
003FFF0000
003FFF0000
003FFF0000
003FFF0000
003FFF0000
003FFF0000
003FFF0000
003FFF0000
003FFF0000
003FFF0000
003FFF0000
003FFF0000
003FFF0000
003FFF0000
003FFF0000
003FFF0000
003FFF0000
003FFF0000
003FFF0000
003FFF0000
003FFF0000
003FFF0000
003FFF0000
003FFF0000
003FFF0000
003FFF0000
007FFF8000
007FFF8000
FFFFFFFFC0
FFFFFFFFC0
FFFFFFFFC0
ENDCHAR
STARTCHAR J
ENCODING 74
SWIDTH 540 0
DWIDTH 54 0
BBX 47 74 4 -2
BITMAP
0007FFFFFFFE
0007FFFFFFFE
0007FFFFFFFE
000001FFFF00
000000FFFE00
000000FFFE00
000000FFFE00
000000FFFE00
000000FFFE00
000000FFFE00
000000FFFE00
000000FFFE00
000000FFFE00
000000FFFE00
000000FFFE00
000000FFFE00
000000FFFE00
000000FFFE00
000000FFFE00
000000FFFE00
000000FFFE00
000000FFFE00
000000FFFE00
000000FFFE00
000000FFFE00
000000FFFE00
000000FFFE00
000000FFFE00
000000FFFE00
000000FFFE00
000000FFFE00
000000FFFE00
000000FFFE00
000000FFFE00
000000FFFE00
000000FFFE00
000000FFFE00
000000FFFE00
000000FFFE00
000000FFFE00
000000FFFE00
000000FFFE00
000000FFFE00
000000FFFE00
000000FFFE00
07F000FFFE00
0FF800FFFE00
1FFC00FFFE00
3FFE00FFFE00
7FFE00FFFE00
7FFF00FFFE00
FFFF00FFFE00
FFFF00FFFE00
FFFF00FFFE00
FFFE00FFFC00
FFFE00FFFC00
FFFC00FFFC00
FFF800FFFC00
FFF000FFFC00
FFE000FFFC00
FF8000FFF800
FE0000FFF800
FE0000FFF000
7C0001FFF000
7C0001FFE000
3E0001FFC000
3E0001FFC000
1F0003FF8000
0F8007FF0000
07C00FFE0000
03F83FF80000
00FFFFE00000
003FFF800000
0007FC000000
ENDCHAR
STARTCHAR K
ENCODING 75
SWIDTH 770 0
DWIDTH 77 0
BBX 69 73 6 -1
BITMAP
FFFFFFFF80FFFFFF00
FFFFFFFF80FFFFFF00
FFFFFFFF80FFFFFF00
007FFF80000FFFE000
007FFF800007FF8000
003FFF000003FE0000
003FFF000003FC0000
003FFF000003F80000
003FFF000003F00000
003FFF000003F00000
003FFF000003E00000
003FFF000007C00000
003FFF00000F800000
003FFF00001F000000
003FFF00003E000000
003FFF00003E000000
003FFF00007C000000
003FFF0000F8000000
003FFF0001F0000000
003FFF0003E0000000
003FFF0007C0000000
003FFF0007C0000000
003FFF000F80000000
003FFF001F00000000
003FFF003E00000000
003FFF007F00000000
003FFF00FF00000000
003FFF00FF80000000
003FFF01FF80000000
003FFF03FFC0000000
003FFF07FFC0000000
003FFF0FFFE0000000
003FFF1FFFE0000000
003FFF1FFFF0000000
003FFF3FFFF0000000
003FFF7FFFF8000000
003FFFFFFFF8000000
003FFFF7FFFC000000
003FFFE3FFFE000000
003FFFC3FFFE000000
003FFF81FFFF000000
003FFF81FFFF000000
003FFF00FFFF800000
003FFF00FFFF800000
003FFF007FFFC00000
003FFF007FFFC00000
003FFF003FFFE00000
003FFF003FFFE00000
003FFF001FFFF00000
003FFF001FFFF00000
003FFF000FFFF80000
003FFF000FFFF80000
003FFF0007FFFC0000
003FFF0007FFFC0000
003FFF0003FFFE0000
003FFF0003FFFE0000
003FFF0001FFFF0000
003FFF0001FFFF0000
003FFF0000FFFF8000
003FFF0000FFFF8000
003FFF00007FFFC000
003FFF00007FFFC000
003FFF00003FFFE000
003FFF00003FFFE000
003FFF00001FFFF000
003FFF00001FFFF000
003FFF00000FFFF800
003FFF00000FFFFC00
007FFF80001FFFFC00
007FFF80001FFFFF00
FFFFFFFF83FFFFFFF8
FFFFFFFF83FFFFFFF8
FFFFFFFF83FFFFFFF8
ENDCHAR
STARTCHAR L
ENCODING 76
SWIDTH 670 0
DWIDTH 67 0
BBX 58 73 6 -1
BITMAP
FFFFFFFFC0000000
FFFFFFFFC0000000
FFFFFFFFC0000000
007FFF8000000000
007FFF8000000000
003FFF0000000000
003FFF0000000000
003FFF0000000000
003FFF0000000000
003FFF0000000000
003FFF0000000000
003FFF0000000000
003FFF0000000000
003FFF0000000000
003FFF0000000000
003FFF0000000000
003FFF0000000000
003FFF0000000000
003FFF0000000000
003FFF0000000000
003FFF0000000000
003FFF0000000000
003FFF0000000000
003FFF0000000000
003FFF0000000000
003FFF0000000000
003FFF0000000000
003FFF0000000000
003FFF0000000000
003FFF0000000000
003FFF0000000000
003FFF0000000000
003FFF0000000000
003FFF0000000000
003FFF0000000000
003FFF0000000000
003FFF0000000000
003FFF0000000000
003FFF0000000000
003FFF0000000000
003FFF0000000000
003FFF00000003C0
003FFF00000003C0
003FFF00000003C0
003FFF00000003C0
003FFF0000000780
003FFF0000000780
003FFF0000000780
003FFF0000000780
003FFF0000000780
003FFF0000000F80
003FFF0000000F80
003FFF0000000F80
003FFF0000001F80
003FFF0000001F80
003FFF0000001F80
003FFF0000003F80
003FFF0000003F80
003FFF0000007F80
003FFF0000007F80
003FFF000000FF80
003FFF000000FF80
003FFF000001FF80
003FFF000003FF80
003FFF000003FF80
003FFF000007FF80
003FFF00000FFF80
003FFF00001FFF80
007FFF80003FFF80
007FFF8001FFFF80
FFFFFFFFFFFFFF80
FFFFFFFFFFFFFF80
FFFFFFFFFFFFFF80
ENDCHAR
STARTCHAR M
ENCODING 77
SWIDTH 890 0
DWIDTH 89 0
BBX 81 74 5 -2
BITMAP
FFFFFF00000001FFFFFF80
FFFFFF00000001FFFFFF80
FFFFFF80000001FFFFFF80
007FFF80000003FFFF0000
003FFF80000003FFFF0000
003FFFC0000003FFFE0000
003FFFC0000003FFFE0000
003FFFC0000007FFFE0000
003FFFE0000007FFFE0000
003FFFE00000077FFE0000
003FFFF00000077FFE0000
003FFFF000000F7FFE0000
003FFFF000000F7FFE0000
003FFFF800000E7FFE0000
003FFFF800000E7FFE0000
003FFFF800001E7FFE0000
003FFFFC00001E7FFE0000
003FFFFC00001C7FFE0000
003DFFFC00003C7FFE0000
003DFFFE00003C7FFE0000
003CFFFE0000387FFE0000
003CFFFE0000387FFE0000
003C7FFF0000787FFE0000
003C7FFF0000787FFE0000
003C7FFF8000707FFE0000
003C3FFF8000707FFE0000
003C3FFF8000F07FFE0000
003C3FFFC000F07FFE0000
003C1FFFC000E07FFE0000
003C1FFFC000E07FFE0000
003C1FFFE001E07FFE0000
003C0FFFE001E07FFE0000
003C0FFFE001C07FFE0000
003C07FFF001C07FFE0000
003C07FFF003C07FFE0000
003C07FFF803807FFE0000
003C03FFF803807FFE0000
003C03FFF807807FFE0000
003C03FFFC07807FFE0000
003C01FFFC07007FFE0000
003C01FFFC07007FFE0000
003C01FFFE0F007FFE0000
003C00FFFE0F007FFE0000
003C00FFFE0E007FFE0000
003C007FFF0E007FFE0000
003C007FFF1E007FFE0000
003C007FFF9E007FFE0000
003C003FFF9C007FFE0000
003C003FFF9C007FFE0000
003C003FFFFC007FFE0000
003C001FFFFC007FFE0000
003C001FFFF8007FFE0000
003C001FFFF8007FFE0000
003C000FFFF8007FFE0000
003C000FFFF0007FFE0000
003C0007FFF0007FFE0000
003C0007FFF0007FFE0000
003C0007FFF0007FFE0000
003C0003FFE0007FFE0000
003C0003FFE0007FFE0000
003C0003FFE0007FFE0000
003C0001FFE0007FFE0000
003C0001FFC0007FFE0000
003E0001FFC0007FFE0000
007E0000FFC0007FFE0000
007E0000FFC0007FFE0000
00FF0000FF80007FFE0000
01FF80007F80007FFE0000
03FFE0007F8000FFFF0000
1FFFFC003F0000FFFF0000
FFFFFF803F01FFFFFFFF80
FFFFFF803F01FFFFFFFF80
FFFFFF801F01FFFFFFFF80
000000001E000000000000
ENDCHAR
STARTCHAR N
ENCODING 78
SWIDTH 764 0
DWIDTH 76 0
BBX 71 75 5 -3
BITMAP
FFFFFC00007FFFFFFE
FFFFFE00007FFFFFFE
FFFFFF00007FFFFFFE
0FFFFF000007FFFFE0
03FFFF800000FFFF00
01FFFFC000003FFC00
00FFFFC000001FF800
00FFFFE000000FF000
007FFFF000000FE000
003FFFF0000007E000
003FFFF8000007E000
001FFFFC000003C000
000FFFFE000003C000
000FFFFE000003C000
000FFFFF000003C000
000FFFFF800003C000
000FFFFF800003C000
000FFFFFC00003C000
000FFFFFE00003C000
000FFFFFE00003C000
000F7FFFF00003C000
000F3FFFF80003C000
000F1FFFF80003C000
000F1FFFFC0003C000
000F0FFFFE0003C000
000F07FFFE0003C000
000F07FFFF0003C000
000F03FFFF8003C000
000F01FFFF8003C000
000F01FFFFC003C000
000F00FFFFE003C000
000F007FFFF003C000
000F007FFFF003C000
000F003FFFF803C000
000F001FFFFC03C000
000F001FFFFC03C000
000F000FFFFE03C000
000F0007FFFF03C000
000F0007FFFF03C000
000F0003FFFF83C000
000F0001FFFFC3C000
000F0001FFFFC3C000
000F0000FFFFE3C000
000F00007FFFF3C000
000F00003FFFF3C000
000F00003FFFFBC000
000F00001FFFFFC000
000F00000FFFFFC000
000F00000FFFFFC000
000F000007FFFFC000
000F000003FFFFC000
000F000003FFFFC000
000F000001FFFFC000
000F000000FFFFC000
000F000000FFFFC000
000F0000007FFFC000
000F0000003FFFC000
000F0000003FFFC000
000F0000001FFFC000
000F0000000FFFC000
000F0000000FFFC000
000F80000007FFC000
000F80000003FFC000
001F80000003FFC000
001FC0000001FFC000
003FE0000000FFC000
007FF00000007FC000
00FFF80000007FC000
03FFFE0000003FC000
1FFFFFC000001FC000
FFFFFFF800001FC000
FFFFFFF800000FC000
FFFFFFF8000007C000
00000000000007C000
00000000000003C000
ENDCHAR
STARTCHAR O
ENCODING 79
SWIDTH 712 0
DWIDTH 71 0
BBX 59 75 7 -2
BITMAP
0000007FC0000000
000003FFF8000000
00001FFFFF000000
00003FE07FC00000
0000FF001FE00000
0001FC0007F00000
0003F80003FC0000
000FF00001FE0000
001FF00001FF0000
003FE00000FF8000
003FE00000FFC000
007FC000007FC000
00FFC000007FE000
01FFC000007FF000
01FFC000003FF000
03FF8000003FF800
03FF8000003FFC00
07FF8000003FFC00
0FFF8000003FFE00
0FFF8000003FFE00
0FFF8000003FFF00
1FFF8000003FFF00
1FFF8000003FFF00
3FFF8000003FFF80
3FFF8000003FFF80
3FFF8000003FFF80
7FFF8000003FFFC0
7FFF8000003FFFC0
7FFF8000003FFFC0
7FFF8000003FFFC0
7FFF8000003FFFE0
FFFF8000003FFFE0
FFFF8000003FFFE0
FFFF8000003FFFE0
FFFF8000003FFFE0
FFFF8000003FFFE0
FFFF8000003FFFE0
FFFF8000003FFFE0
FFFF8000003FFFE0
FFFF8000003FFFE0
FFFF8000003FFFE0
FFFF8000003FFFE0
FFFF8000003FFFE0
FFFF8000003FFFE0
7FFF8000003FFFE0
7FFF8000003FFFC0
7FFF8000003FFFC0
7FFF8000003FFFC0
7FFF8000003FFFC0
3FFF8000003FFF80
3FFF8000003FFF80
3FFF8000003FFF80
1FFF8000003FFF00
1FFF8000003FFF00
0FFF8000003FFF00
0FFF8000003FFE00
0FFF8000003FFE00
07FF8000003FFC00
03FF8000003FFC00
03FF8000003FF800
01FFC000003FF000
01FFC000007FF000
00FFC000007FE000
007FC000007FC000
003FE00000FFC000
001FE00000FF8000
001FF00001FF0000
000FF00001FE0000
0003F80003FC0000
0001FC0007F00000
0000FF001FE00000
00003FE07FC00000
00001FFFFF000000
000003FFFC000000
0000007FC0000000
ENDCHAR
STARTCHAR P
ENCODING 80
SWIDTH 702 0
DWIDTH 70 0
BBX 60 73 6 -1
BITMAP
FFFFFFFFFFC00000
FFFFFFFFFFFC0000
FFFFFFFFFFFF8000
007FFF8007FFE000
007FFF8001FFF000
003FFF0000FFF800
003FFF00007FFE00
003FFF00003FFE00
003FFF00003FFF00
003FFF00001FFF80
003FFF00001FFFC0
003FFF00001FFFC0
003FFF00001FFFE0
003FFF00001FFFE0
003FFF00000FFFE0
003FFF00000FFFE0
003FFF00000FFFF0
003FFF00000FFFF0
003FFF00000FFFF0
003FFF00000FFFF0
003FFF00000FFFF0
003FFF00000FFFF0
003FFF00000FFFE0
003FFF00000FFFE0
003FFF00001FFFE0
003FFF00001FFFE0
003FFF00001FFFC0
003FFF00001FFFC0
003FFF00001FFF80
003FFF00003FFF00
003FFF00003FFE00
003FFF00007FFE00
003FFF0000FFF800
003FFF0001FFF000
003FFF0007FFE000
003FFFFFFFFF8000
003FFFFFFFFC0000
003FFFFFFFE00000
003FFF0000000000
003FFF0000000000
003FFF0000000000
003FFF0000000000
003FFF0000000000
003FFF0000000000
003FFF0000000000
003FFF0000000000
003FFF0000000000
003FFF0000000000
003FFF0000000000
003FFF0000000000
003FFF0000000000
003FFF0000000000
003FFF0000000000
003FFF0000000000
003FFF0000000000
003FFF0000000000
003FFF0000000000
003FFF0000000000
003FFF0000000000
003FFF0000000000
003FFF0000000000
003FFF0000000000
003FFF0000000000
003FFF0000000000
003FFF0000000000
003FFF0000000000
003FFF0000000000
003FFF0000000000
007FFF8000000000
007FFF8000000000
FFFFFFFFF0000000
FFFFFFFFF0000000
FFFFFFFFF0000000
ENDCHAR
STARTCHAR Q
ENCODING 81
SWIDTH 712 0
DWIDTH 71 0
BBX 60 97 7 -24
BITMAP
0000007FC0000000
000003FFF8000000
00001FFFFF000000
00003FE07FC00000
0000FF001FE00000
0001FC0007F00000
0003F80003FC0000
000FF00001FE0000
001FF00001FF0000
001FE00000FF8000
003FE00000FF8000
007FC000007FC000
00FFC000007FE000
01FFC000007FF000
01FFC000003FF000
03FF8000003FF800
03FF8000003FFC00
07FF8000003FFC00
0FFF8000003FFE00
0FFF8000003FFE00
0FFF8000003FFF00
1FFF8000003FFF00
1FFF8000003FFF00
3FFF8000003FFF80
3FFF8000003FFF80
3FFF8000003FFF80
7FFF8000003FFFC0
7FFF8000003FFFC0
7FFF8000003FFFC0
7FFF8000003FFFC0
7FFF8000003FFFE0
FFFF8000003FFFE0
FFFF8000003FFFE0
FFFF8000003FFFE0
FFFF8000003FFFE0
FFFF8000003FFFE0
FFFF8000003FFFE0
FFFF8000003FFFE0
FFFF8000003FFFE0
FFFF8000003FFFE0
FFFF8000003FFFE0
FFFF8000003FFFE0
FFFF8000003FFFE0
FFFF8000003FFFE0
7FFF8000003FFFE0
7FFF8000003FFFC0
7FFF8000003FFFC0
7FFF8000003FFFC0
7FFF8000003FFFC0
3FFF8000003FFF80
3FFF8000003FFF80
3FFF8000003FFF80
1FFF8000003FFF00
1FFF8000003FFF00
1FFF8000003FFF00
0FFF8000003FFE00
0FFF8000003FFE00
07FF807F803FFC00
07FF80FFE03FFC00
03FF81FFF03FF800
01FFC3C1F83FF800
01FFC7807C7FF000
00FFC7003C7FE000
007FC7003E7FC000
003FEE003EFFC000
003FEE001EFF8000
001FFE001FFF0000
000FF6001FFE0000
0007FF001FFC00E0
0001FF001FF000E0
0000FF801FE000E0
00003FE0FFC000E0
00001FFFFF0000F0
000003FFFF0000F0
0000007FDF0000F0
000000001F0000F0
000000001F8000F0
000000001F8000F0
000000001F8001F0
000000001FC001E0
000000001FC001E0
000000001FE003E0
000000003FF007E0
000000003FF80FE0
000000003FFFFFE0
000000001FFFFFE0
000000001FFFFFC0
000000001FFFFFC0
000000001FFFFFC0
000000001FFFFF80
000000000FFFFF80
000000000FFFFF00
0000000007FFFE00
0000000003FFFC00
0000000001FFF800
00000000007FF000
00000000001FC000
ENDCHAR
STARTCHAR R
ENCODING 82
SWIDTH 730 0
DWIDTH 73 0
BBX 65 76 6 -4
BITMAP
FFFFFFFFFE00000000
FFFFFFFFFFE0000000
FFFFFFFFFFFC000000
007FFF803FFF000000
007FFF800FFFC00000
003FFF0003FFE00000
003FFF0003FFF00000
003FFF0001FFF80000
003FFF0001FFFC0000
003FFF0000FFFC0000
003FFF0000FFFE0000
003FFF0000FFFE0000
003FFF0000FFFF0000
003FFF0000FFFF0000
003FFF0000FFFF0000
003FFF00007FFF0000
003FFF00007FFF8000
003FFF00007FFF8000
003FFF00007FFF8000
003FFF00007FFF8000
003FFF0000FFFF0000
003FFF0000FFFF0000
003FFF0000FFFF0000
003FFF0000FFFF0000
003FFF0000FFFE0000
003FFF0000FFFE0000
003FFF0001FFFC0000
003FFF0001FFFC0000
003FFF0001FFF80000
003FFF0003FFF00000
003FFF0007FFC00000
003FFF000FFF800000
003FFF003FFE000000
003FFFFFFFF0000000
003FFFFFFF00000000
003FFFFFFE00000000
003FFF007FC0000000
003FFF001FF8000000
003FFF0007FE000000
003FFF0007FF000000
003FFF0003FFC00000
003FFF0003FFE00000
003FFF0001FFE00000
003FFF0001FFF00000
003FFF0001FFF80000
003FFF0001FFF80000
003FFF0000FFF80000
003FFF0000FFFC0000
003FFF0000FFFC0000
003FFF0000FFFC0000
003FFF0000FFFC0000
003FFF0000FFFC0000
003FFF0000FFFC0000
003FFF0000FFFC0000
003FFF0000FFFC0000
003FFF0000FFFC0380
003FFF0000FFFC0380
003FFF0000FFFC0380
003FFF0000FFFC0380
003FFF0000FFFC0380
003FFF0000FFFC0380
003FFF0000FFFC0380
003FFF0000FFFC0380
003FFF0000FFFC0780
003FFF0000FFFC0780
003FFF0000FFFC0700
003FFF0000FFFC0700
003FFF00007FFE0F00
007FFF80007FFE0F00
007FFF80003FFF1E00
FFFFFFFFF03FFFFE00
FFFFFFFFF01FFFFC00
FFFFFFFFF00FFFF800
000000000007FFF000
000000000001FFE000
0000000000000E0000
ENDCHAR
STARTCHAR S
ENCODING 83
SWIDTH 620 0
DWIDTH 62 0
BBX 48 75 9 -2
BITMAP
0001FF000000
001FFFF000F0
007FFFFC00F0
01FF03FF80F0
03F0007FC0F0
07E0001FF1F0
0FC0000FFFF0
1F800003FFF0
1F800001FFF0
3F800000FFF0
3F8000007FF0
7F8000007FF0
7F8000003FF0
7F8000001FF0
7F8000000FF0
FFC000000FF0
FFC0000007F0
FFE0000007F0
FFF0000003F0
FFF8000001F0
FFFC000001F0
FFFE000001F0
FFFF800000F0
7FFFC00000F0
7FFFF00000F8
7FFFF8000078
3FFFFE000078
3FFFFF000000
3FFFFFC00000
1FFFFFE00000
0FFFFFF80000
07FFFFFC0000
07FFFFFF0000
03FFFFFF8000
01FFFFFFE000
007FFFFFF800
003FFFFFFC00
001FFFFFFF00
0007FFFFFF80
0003FFFFFFC0
0000FFFFFFE0
00003FFFFFF0
00001FFFFFF0
E00007FFFFF8
F00003FFFFFC
F00000FFFFFC
F000007FFFFC
F000001FFFFE
F800000FFFFE
F8000003FFFE
F8000001FFFF
FC0000007FFF
FC0000003FFF
FC0000000FFF
FE00000007FF
FE00000003FF
FF00000001FF
FF00000001FF
FF80000000FF
FF80000000FE
FFC0000000FE
FFE0000000FE
FFE0000000FC
FFF0000000FC
FFF8000001F8
FFFC000001F8
FFFE000003F0
FFFF000003E0
F87F800007C0
F83FC0000F80
700FF0003F00
7007FE03FE00
7001FFFFF800
70007FFFE000
000007FE0000
ENDCHAR
STARTCHAR T
ENCODING 84
SWIDTH 716 0
DWIDTH 72 0
BBX 62 73 6 -1
BITMAP
7FFFFFFFFFFFFFF8
7FFFFFFFFFFFFFF8
7FFFFFFFFFFFFFF8
7FFFC7FFFF0FFFF8
7FFE01FFFE03FFF8
7FFC01FFFC00FFF8
7FF801FFFC007FF8
7FF001FFFC003FF8
7FE001FFFC003FF8
7FC001FFFC001FF8
7FC001FFFC000FF8
FF8001FFFC000FF8
FF8001FFFC0007F8
FF0001FFFC0003F8
FF0001FFFC0003F8
FE0001FFFC0003F8
FE0001FFFC0001F8
FC0001FFFC0001F8
FC0001FFFC0000F8
FC0001FFFC0000F8
F80001FFFC0000F8
F80001FFFC0000F8
F80001FFFC000078
F80001FFFC000078
F00001FFFC000078
F00001FFFC000078
F00001FFFC00003C
F00001FFFC00003C
F00001FFFC00003C
E00001FFFC00003C
E00001FFFC00003C
000001FFFC000000
000001FFFC000000
000001FFFC000000
000001FFFC000000
000001FFFC000000
000001FFFC000000
000001FFFC000000
000001FFFC000000
000001FFFC000000
000001FFFC000000
000001FFFC000000
000001FFFC000000
000001FFFC000000
000001FFFC000000
000001FFFC000000
000001FFFC000000
000001FFFC000000
000001FFFC000000
000001FFFC000000
000001FFFC000000
000001FFFC000000
000001FFFC000000
000001FFFC000000
000001FFFC000000
000001FFFC000000
000001FFFC000000
000001FFFC000000
000001FFFC000000
000001FFFC000000
000001FFFC000000
000001FFFC000000
000001FFFC000000
000001FFFC000000
000001FFFC000000
000001FFFC000000
000001FFFC000000
000001FFFC000000
000001FFFC000000
000003FFFE000000
0007FFFFFFFF8000
0007FFFFFFFF8000
0007FFFFFFFF8000
ENDCHAR
STARTCHAR U
ENCODING 85
SWIDTH 794 0
DWIDTH 79 0
BBX 69 74 7 -2
BITMAP
FFFFFFFF000FFFFFF8
FFFFFFFF000FFFFFF8
FFFFFFFF000FFFFFF8
00FFFF000001FFFFC0
00FFFF0000003FFE00
007FFE0000000FFC00
007FFE00000007F800
007FFE00000003F000
007FFE00000003E000
007FFE00000003E000
007FFE00000001E000
007FFE00000001E000
007FFE00000001E000
007FFE00000001E000
007FFE00000001E000
007FFE00000001E000
007FFE00000001E000
007FFE00000001E000
007FFE00000001E000
007FFE00000001E000
007FFE00000001E000
007FFE00000001E000
007FFE00000001E000
007FFE00000001E000
007FFE00000001E000
007FFE00000001E000
007FFE00000001E000
007FFE00000001E000
007FFE00000001E000
007FFE00000001E000
007FFE00000001E000
007FFE00000001E000
007FFE00000001E000
007FFE00000001E000
007FFE00000001E000
007FFE00000001E000
007FFE00000001E000
007FFE00000001E000
007FFE00000001E000
007FFE00000001E000
007FFE00000001E000
007FFE00000001E000
007FFE00000001E000
007FFE00000001E000
007FFE00000001E000
007FFE00000001E000
007FFE00000001E000
007FFE00000001E000
007FFE00000001E000
007FFE00000001E000
007FFE00000001E000
007FFE00000001E000
007FFE00000001E000
007FFE00000001E000
007FFE00000001E000
007FFF00000003C000
003FFF00000003C000
003FFF00000003C000
003FFF00000003C000
001FFF000000078000
001FFF000000078000
000FFF8000000F8000
000FFF8000000F0000
0007FF8000001F0000
0007FFC000003E0000
0003FFE000007C0000
0001FFF00000F80000
0000FFF80001F00000
00007FFC0007E00000
00001FFF803FC00000
00000FFFFFFF000000
000003FFFFFE000000
0000007FFFF0000000
00000007FF00000000
ENDCHAR
STARTCHAR V
ENCODING 86
SWIDTH 772 0
DWIDTH 77 0
BBX 70 73 5 -1
BITMAP
FFFFFFFFC01FFFFFFC
FFFFFFFFC01FFFFFFC
FFFFFFFFC01FFFFFFC
03FFFFF000003FFF80
00FFFFC000000FFC00
007FFFC000000FF800
003FFFC0000007F000
003FFFC0000007E000
001FFFE0000003E000
001FFFE0000003C000
001FFFE0000007C000
000FFFF0000007C000
000FFFF00000078000
000FFFF00000078000
0007FFF80000078000
0007FFF800000F0000
0007FFF800000F0000
0003FFFC00000F0000
0003FFFC00001E0000
0003FFFC00001E0000
0001FFFE00001E0000
0001FFFE00003C0000
0000FFFE00003C0000
0000FFFF00003C0000
0000FFFF0000780000
00007FFF0000780000
00007FFF8000780000
00007FFF8000F00000
00003FFFC000F00000
00003FFFC000F00000
00003FFFC001E00000
00001FFFE001E00000
00001FFFE001E00000
00001FFFE003C00000
00000FFFF003C00000
00000FFFF003C00000
00000FFFF007800000
000007FFF807800000
000007FFF807800000
000003FFF80F000000
000003FFFC0F000000
000003FFFC0F000000
000001FFFC0F000000
000001FFFE1E000000
000001FFFE1E000000
000000FFFF1E000000
000000FFFF3C000000
000000FFFF3C000000
0000007FFFBC000000
0000007FFFF8000000
0000007FFFF8000000
0000003FFFF8000000
0000003FFFF0000000
0000003FFFF0000000
0000001FFFF0000000
0000001FFFE0000000
0000000FFFE0000000
0000000FFFE0000000
0000000FFFC0000000
00000007FFC0000000
00000007FFC0000000
00000007FF80000000
00000003FF80000000
00000003FF80000000
00000003FF00000000
00000001FF00000000
00000001FF00000000
00000001FE00000000
00000000FE00000000
00000000FE00000000
00000000FC00000000
000000007C00000000
000000007C00000000
ENDCHAR
STARTCHAR W
ENCODING 87
SWIDTH 1076 0
DWIDTH 108 0
BBX 102 73 4 -1
BITMAP
FFFFFFFF83FFFFFFFC1FFFFFFC
FFFFFFFF83FFFFFFFC1FFFFFFC
FFFFFFFF83FFFFFFFC1FFFFFFC
07FFFFF8003FFFFF00007FFF80
00FFFFF0000FFFFE00001FFC00
007FFFE00007FFFC00000FF800
003FFFE00003FFFC000007F000
001FFFE00001FFFC000007E000
001FFFE00001FFFE000007E000
000FFFF00001FFFE000007C000
000FFFF00000FFFE000007C000
000FFFF00000FFFF0000078000
0007FFF00000FFFF0000078000
0007FFF800007FFF0000078000
0007FFF800007FFF80000F0000
0003FFF800007FFF80000F0000
0003FFFC00007FFF80000F0000
0003FFFC00007FFFC0000F0000
0001FFFC00007FFFC0001E0000
0001FFFE0000FFFFC0001E0000
0001FFFE0000FFFFE0001E0000
0000FFFE0000FFFFE0003E0000
0000FFFF0001FFFFE0003C0000
0000FFFF0001EFFFF0003C0000
00007FFF0001EFFFF0003C0000
00007FFF8001E7FFF000780000
00007FFF8003C7FFF800780000
00003FFF8003C7FFF800780000
00003FFFC003C3FFF800F80000
00003FFFC007C3FFFC00F00000
00001FFFC00783FFFC00F00000
00001FFFE00781FFFC00F00000
00001FFFE00F81FFFC01E00000
00000FFFE00F01FFFE01E00000
00000FFFF00F01FFFE01E00000
00000FFFF00F00FFFE01E00000
000007FFF01E00FFFF03C00000
000007FFF81E00FFFF03C00000
000007FFF81E007FFF03C00000
000003FFF83E007FFF87C00000
000003FFFC3C007FFF87800000
000003FFFC3C003FFF87800000
000001FFFC3C003FFFC7800000
000001FFFE78003FFFCF000000
000001FFFE78001FFFCF000000
000000FFFE78001FFFEF000000
000000FFFFF8001FFFEF000000
000000FFFFF0000FFFFE000000
0000007FFFF0000FFFFE000000
0000007FFFF0000FFFFE000000
0000007FFFE00007FFFC000000
0000003FFFE00007FFFC000000
0000003FFFE00007FFFC000000
0000003FFFE00003FFFC000000
0000003FFFC00003FFF8000000
0000001FFFC00003FFF8000000
0000001FFFC00001FFF8000000
0000001FFF800001FFF8000000
0000000FFF800001FFF0000000
0000000FFF800000FFF0000000
0000000FFF000000FFF0000000
00000007FF000000FFE0000000
00000007FF0000007FE0000000
00000007FF0000007FE0000000
00000003FE0000007FE0000000
00000003FE0000003FC0000000
00000003FE0000003FC0000000
00000001FC0000003FC0000000
00000001FC0000001F80000000
00000001FC0000001F80000000
00000000FC0000001F80000000
00000000F80000001F80000000
00000000F80000000F00000000
ENDCHAR
STARTCHAR X
ENCODING 88
SWIDTH 750 0
DWIDTH 75 0
BBX 68 73 5 -1
BITMAP
7FFFFFFF80FFFFFF80
7FFFFFFF80FFFFFF80
7FFFFFFF80FFFFFF80
07FFFFF8000FFFE000
00FFFFF00003FF8000
007FFFF00003FE0000
003FFFF00001FC0000
001FFFF00001FC0000
000FFFF80001F80000
000FFFF80001F00000
0007FFFC0001F00000
0007FFFC0003E00000
0003FFFE0003C00000
0003FFFE0007C00000
0001FFFF0007800000
0001FFFF000F800000
0000FFFF801F000000
0000FFFF801E000000
00007FFFC03E000000
00007FFFC07C000000
00003FFFE078000000
00001FFFE0F8000000
00001FFFF0F0000000
00000FFFF1E0000000
00000FFFFBE0000000
000007FFFFC0000000
000007FFFF80000000
000003FFFF80000000
000003FFFF00000000
000001FFFF00000000
000001FFFF00000000
000000FFFF80000000
000000FFFF80000000
0000007FFFC0000000
0000007FFFC0000000
0000003FFFE0000000
0000003FFFE0000000
0000001FFFF0000000
0000001FFFF0000000
0000000FFFF8000000
0000000FFFF8000000
0000001FFFFC000000
0000001FFFFC000000
0000003FFFFE000000
0000007DFFFF000000
00000079FFFF000000
000000F8FFFF800000
000001F0FFFF800000
000001E07FFFC00000
000003E07FFFC00000
000003C03FFFE00000
000007803FFFE00000
00000F801FFFF00000
00000F001FFFF00000
00001E000FFFF80000
00003E000FFFF80000
00003C0007FFFC0000
00007C0007FFFC0000
0000F80003FFFE0000
0000F00003FFFE0000
0001F00001FFFF0000
0003E00000FFFF0000
0003E00000FFFF8000
0007C000007FFF8000
000FC000007FFFC000
000FC000007FFFE000
001FC000007FFFE000
003FE000007FFFF000
00FFE000007FFFFC00
07FFF00000FFFFFF00
FFFFFFC01FFFFFFFF0
FFFFFFC01FFFFFFFF0
FFFFFFC01FFFFFFFF0
ENDCHAR
STARTCHAR Y
ENCODING 89
SWIDTH 736 0
DWIDTH 74 0
BBX 66 73 5 -1
BITMAP
FFFFFFFE003FFFFFC0
FFFFFFFE003FFFFFC0
FFFFFFFE003FFFFFC0
07FFFFE00003FFF800
01FFFFC00000FFE000
00FFFFC000007FC000
00FFFF8000007F8000
007FFF8000003F0000
007FFFC000003E0000
003FFFC000003E0000
003FFFE000003C0000
001FFFE000003C0000
001FFFE000007C0000
000FFFF00000780000
000FFFF00000780000
000FFFF80000F00000
0007FFF80000F00000
0007FFFC0000F00000
0003FFFC0001E00000
0003FFFE0001E00000
0001FFFE0003C00000
0001FFFE0003C00000
0000FFFF0003C00000
0000FFFF0007800000
00007FFF8007800000
00007FFF800F000000
00007FFFC00F000000
00003FFFC00F000000
00003FFFE01E000000
00001FFFE01E000000
00001FFFE03C000000
00000FFFF03C000000
00000FFFF03C000000
000007FFF878000000
000007FFF878000000
000003FFFC70000000
000003FFFCF0000000
000003FFFEF0000000
000001FFFFE0000000
000001FFFFE0000000
000000FFFFC0000000
000000FFFFC0000000
0000007FFFC0000000
0000007FFF80000000
0000003FFF80000000
0000003FFF80000000
0000003FFF80000000
0000003FFF80000000
0000003FFF80000000
0000003FFF80000000
0000003FFF80000000
0000003FFF80000000
0000003FFF80000000
0000003FFF80000000
0000003FFF80000000
0000003FFF80000000
0000003FFF80000000
0000003FFF80000000
0000003FFF80000000
0000003FFF80000000
0000003FFF80000000
0000003FFF80000000
0000003FFF80000000
0000003FFF80000000
0000003FFF80000000
0000003FFF80000000
0000003FFF80000000
0000003FFF80000000
0000003FFF80000000
0000007FFFC0000000
00007FFFFFFFC00000
00007FFFFFFFC00000
00007FFFFFFFC00000
ENDCHAR
STARTCHAR Z
ENCODING 90
SWIDTH 652 0
DWIDTH 65 0
BBX 54 73 7 -1
BITMAP
1FFFFFFFFFFFF0
1FFFFFFFFFFFF0
1FFFFFFFFFFFF0
1FFFF0001FFFF0
1FFFC0003FFFE0
1FFF00003FFFE0
1FFE00007FFFC0
1FFC00007FFFC0
1FF80000FFFF80
1FF00000FFFF80
1FE00001FFFF00
3FC00001FFFF00
3FC00003FFFE00
3F800003FFFC00
3F800007FFFC00
3F000007FFF800
3F00000FFFF800
3E00001FFFF000
3E00001FFFF000
3E00003FFFE000
3C00003FFFE000
3C00007FFFC000
3C00007FFFC000
380000FFFF8000
380000FFFF8000
380001FFFF0000
000001FFFF0000
000003FFFE0000
000003FFFE0000
000007FFFC0000
000007FFF80000
00000FFFF80000
00000FFFF00000
00001FFFF00000
00003FFFE00000
00003FFFE00000
00007FFFC00000
00007FFFC00000
0000FFFF800000
0000FFFF800000
0001FFFF000000
0001FFFF000000
0003FFFE000000
0003FFFE000000
0007FFFC00003C
0007FFFC00003C
000FFFF8000038
000FFFF0000038
001FFFF0000078
001FFFE0000078
003FFFE0000078
007FFFC0000078
007FFFC00000F8
00FFFF800000F8
00FFFF800001F8
01FFFF000001F8
01FFFF000001F8
03FFFE000003F8
03FFFE000007F8
07FFFC000007F8
07FFFC00000FF8
0FFFF800001FF8
0FFFF800001FF8
1FFFF000003FF8
1FFFF000007FF0
3FFFE00000FFF0
3FFFC00001FFF0
7FFFC00003FFF0
FFFF80000FFFF0
FFFF80007FFFF0
FFFFFFFFFFFFF0
FFFFFFFFFFFFF0
FFFFFFFFFFFFF0
ENDCHAR
ENDFONT
